<mxfile host="Electron" modified="2024-07-03T05:32:25.653Z" agent="Mozilla/5.0 (Windows NT 10.0; Win64; x64) AppleWebKit/537.36 (KHTML, like Gecko) draw.io/22.1.11 Chrome/114.0.5735.289 Electron/25.9.8 Safari/537.36" etag="fcrUmjsdep019g_K1P9c" version="22.1.11" type="device">
  <diagram id="C5RBs43oDa-KdzZeNtuy" name="Page-1">
    <mxGraphModel dx="1418" dy="820" grid="1" gridSize="10" guides="1" tooltips="1" connect="1" arrows="1" fold="1" page="1" pageScale="1" pageWidth="827" pageHeight="1169" math="0" shadow="0">
      <root>
        <mxCell id="WIyWlLk6GJQsqaUBKTNV-0" />
        <mxCell id="WIyWlLk6GJQsqaUBKTNV-1" parent="WIyWlLk6GJQsqaUBKTNV-0" />
        <mxCell id="7RbqEsqShzmWH4fHyRnP-2" style="edgeStyle=orthogonalEdgeStyle;rounded=0;orthogonalLoop=1;jettySize=auto;html=1;exitX=1;exitY=0.5;exitDx=0;exitDy=0;entryX=0;entryY=0.5;entryDx=0;entryDy=0;fontFamily=Comic Sans MS;fontSize=16;sketch=1;curveFitting=1;jiggle=2;" edge="1" parent="WIyWlLk6GJQsqaUBKTNV-1" source="7RbqEsqShzmWH4fHyRnP-0" target="7RbqEsqShzmWH4fHyRnP-1">
          <mxGeometry relative="1" as="geometry" />
        </mxCell>
        <mxCell id="7RbqEsqShzmWH4fHyRnP-0" value="inflateWidget" style="rounded=1;whiteSpace=wrap;html=1;fontFamily=Comic Sans MS;fontSize=16;sketch=1;curveFitting=1;jiggle=2;" vertex="1" parent="WIyWlLk6GJQsqaUBKTNV-1">
          <mxGeometry x="110" y="410" width="130" height="40" as="geometry" />
        </mxCell>
        <mxCell id="7RbqEsqShzmWH4fHyRnP-6" style="edgeStyle=orthogonalEdgeStyle;rounded=0;orthogonalLoop=1;jettySize=auto;html=1;exitX=1;exitY=0.5;exitDx=0;exitDy=0;entryX=0;entryY=0.5;entryDx=0;entryDy=0;fontFamily=Comic Sans MS;fontSize=16;sketch=1;curveFitting=1;jiggle=2;" edge="1" parent="WIyWlLk6GJQsqaUBKTNV-1" source="7RbqEsqShzmWH4fHyRnP-1" target="7RbqEsqShzmWH4fHyRnP-4">
          <mxGeometry relative="1" as="geometry" />
        </mxCell>
        <mxCell id="7RbqEsqShzmWH4fHyRnP-7" style="edgeStyle=orthogonalEdgeStyle;rounded=0;orthogonalLoop=1;jettySize=auto;html=1;exitX=1;exitY=0.5;exitDx=0;exitDy=0;entryX=0;entryY=0.5;entryDx=0;entryDy=0;fontFamily=Comic Sans MS;fontSize=16;sketch=1;curveFitting=1;jiggle=2;" edge="1" parent="WIyWlLk6GJQsqaUBKTNV-1" source="7RbqEsqShzmWH4fHyRnP-1" target="7RbqEsqShzmWH4fHyRnP-5">
          <mxGeometry relative="1" as="geometry" />
        </mxCell>
        <mxCell id="7RbqEsqShzmWH4fHyRnP-1" value="mount" style="rounded=1;whiteSpace=wrap;html=1;fontFamily=Comic Sans MS;fontSize=16;sketch=1;curveFitting=1;jiggle=2;" vertex="1" parent="WIyWlLk6GJQsqaUBKTNV-1">
          <mxGeometry x="284" y="410" width="130" height="40" as="geometry" />
        </mxCell>
        <mxCell id="7RbqEsqShzmWH4fHyRnP-12" style="edgeStyle=orthogonalEdgeStyle;rounded=0;orthogonalLoop=1;jettySize=auto;html=1;exitX=1;exitY=0.5;exitDx=0;exitDy=0;fontFamily=Comic Sans MS;fontSize=16;sketch=1;curveFitting=1;jiggle=2;" edge="1" parent="WIyWlLk6GJQsqaUBKTNV-1" source="7RbqEsqShzmWH4fHyRnP-4" target="7RbqEsqShzmWH4fHyRnP-9">
          <mxGeometry relative="1" as="geometry" />
        </mxCell>
        <mxCell id="7RbqEsqShzmWH4fHyRnP-4" value="rebuild" style="rounded=1;whiteSpace=wrap;html=1;fontFamily=Comic Sans MS;fontSize=16;sketch=1;curveFitting=1;jiggle=2;" vertex="1" parent="WIyWlLk6GJQsqaUBKTNV-1">
          <mxGeometry x="470" y="310" width="130" height="40" as="geometry" />
        </mxCell>
        <mxCell id="7RbqEsqShzmWH4fHyRnP-21" style="edgeStyle=orthogonalEdgeStyle;rounded=0;orthogonalLoop=1;jettySize=auto;html=1;exitX=1;exitY=0.5;exitDx=0;exitDy=0;entryX=0;entryY=0.5;entryDx=0;entryDy=0;fontFamily=Comic Sans MS;fontSize=16;sketch=1;curveFitting=1;jiggle=2;" edge="1" parent="WIyWlLk6GJQsqaUBKTNV-1" source="7RbqEsqShzmWH4fHyRnP-5" target="7RbqEsqShzmWH4fHyRnP-17">
          <mxGeometry relative="1" as="geometry" />
        </mxCell>
        <mxCell id="7RbqEsqShzmWH4fHyRnP-22" style="edgeStyle=orthogonalEdgeStyle;rounded=0;orthogonalLoop=1;jettySize=auto;html=1;exitX=1;exitY=0.5;exitDx=0;exitDy=0;entryX=0;entryY=0.5;entryDx=0;entryDy=0;fontFamily=Comic Sans MS;fontSize=16;sketch=1;curveFitting=1;jiggle=2;" edge="1" parent="WIyWlLk6GJQsqaUBKTNV-1" source="7RbqEsqShzmWH4fHyRnP-5" target="7RbqEsqShzmWH4fHyRnP-18">
          <mxGeometry relative="1" as="geometry" />
        </mxCell>
        <mxCell id="7RbqEsqShzmWH4fHyRnP-5" value="" style="rounded=1;whiteSpace=wrap;html=1;fontFamily=Comic Sans MS;fontSize=16;sketch=1;curveFitting=1;jiggle=2;" vertex="1" parent="WIyWlLk6GJQsqaUBKTNV-1">
          <mxGeometry x="470" y="530" width="50" height="40" as="geometry" />
        </mxCell>
        <mxCell id="7RbqEsqShzmWH4fHyRnP-13" style="edgeStyle=orthogonalEdgeStyle;rounded=0;orthogonalLoop=1;jettySize=auto;html=1;exitX=1;exitY=0.5;exitDx=0;exitDy=0;entryX=0;entryY=0.5;entryDx=0;entryDy=0;fontFamily=Comic Sans MS;fontSize=16;sketch=1;curveFitting=1;jiggle=2;" edge="1" parent="WIyWlLk6GJQsqaUBKTNV-1" source="7RbqEsqShzmWH4fHyRnP-9" target="7RbqEsqShzmWH4fHyRnP-11">
          <mxGeometry relative="1" as="geometry" />
        </mxCell>
        <mxCell id="7RbqEsqShzmWH4fHyRnP-14" style="edgeStyle=orthogonalEdgeStyle;rounded=0;orthogonalLoop=1;jettySize=auto;html=1;exitX=1;exitY=0.5;exitDx=0;exitDy=0;entryX=0;entryY=0.5;entryDx=0;entryDy=0;fontFamily=Comic Sans MS;fontSize=16;sketch=1;curveFitting=1;jiggle=2;" edge="1" parent="WIyWlLk6GJQsqaUBKTNV-1" source="7RbqEsqShzmWH4fHyRnP-9" target="7RbqEsqShzmWH4fHyRnP-10">
          <mxGeometry relative="1" as="geometry" />
        </mxCell>
        <mxCell id="7RbqEsqShzmWH4fHyRnP-9" value="performRebuild" style="rounded=1;whiteSpace=wrap;html=1;fontFamily=Comic Sans MS;fontSize=16;sketch=1;curveFitting=1;jiggle=2;" vertex="1" parent="WIyWlLk6GJQsqaUBKTNV-1">
          <mxGeometry x="660" y="310" width="130" height="40" as="geometry" />
        </mxCell>
        <mxCell id="7RbqEsqShzmWH4fHyRnP-10" value="build" style="rounded=1;whiteSpace=wrap;html=1;fontFamily=Comic Sans MS;fontSize=16;sketch=1;curveFitting=1;jiggle=2;" vertex="1" parent="WIyWlLk6GJQsqaUBKTNV-1">
          <mxGeometry x="840" y="360" width="130" height="40" as="geometry" />
        </mxCell>
        <mxCell id="7RbqEsqShzmWH4fHyRnP-46" style="edgeStyle=orthogonalEdgeStyle;rounded=0;orthogonalLoop=1;jettySize=auto;html=1;exitX=1;exitY=0.5;exitDx=0;exitDy=0;entryX=0;entryY=0.5;entryDx=0;entryDy=0;sketch=1;curveFitting=1;jiggle=2;fontFamily=Comic Sans MS;fontSize=16;" edge="1" parent="WIyWlLk6GJQsqaUBKTNV-1" source="7RbqEsqShzmWH4fHyRnP-11" target="7RbqEsqShzmWH4fHyRnP-0">
          <mxGeometry relative="1" as="geometry">
            <Array as="points">
              <mxPoint x="990" y="270" />
              <mxPoint x="990" y="200" />
              <mxPoint x="90" y="200" />
              <mxPoint x="90" y="430" />
            </Array>
          </mxGeometry>
        </mxCell>
        <mxCell id="7RbqEsqShzmWH4fHyRnP-11" value="updateChild" style="rounded=1;whiteSpace=wrap;html=1;fontFamily=Comic Sans MS;fontSize=16;sketch=1;curveFitting=1;jiggle=2;" vertex="1" parent="WIyWlLk6GJQsqaUBKTNV-1">
          <mxGeometry x="840" y="250" width="130" height="40" as="geometry" />
        </mxCell>
        <mxCell id="7RbqEsqShzmWH4fHyRnP-17" value="createRenderObject" style="rounded=1;whiteSpace=wrap;html=1;fontFamily=Comic Sans MS;fontSize=16;sketch=1;curveFitting=1;jiggle=2;" vertex="1" parent="WIyWlLk6GJQsqaUBKTNV-1">
          <mxGeometry x="560" y="460" width="190" height="40" as="geometry" />
        </mxCell>
        <mxCell id="7RbqEsqShzmWH4fHyRnP-35" style="edgeStyle=orthogonalEdgeStyle;rounded=0;orthogonalLoop=1;jettySize=auto;html=1;exitX=0.5;exitY=1;exitDx=0;exitDy=0;entryX=0.5;entryY=0;entryDx=0;entryDy=0;sketch=1;curveFitting=1;jiggle=2;fontFamily=Comic Sans MS;fontSize=16;" edge="1" parent="WIyWlLk6GJQsqaUBKTNV-1" source="7RbqEsqShzmWH4fHyRnP-18" target="7RbqEsqShzmWH4fHyRnP-36">
          <mxGeometry relative="1" as="geometry">
            <mxPoint x="650" y="700" as="targetPoint" />
          </mxGeometry>
        </mxCell>
        <mxCell id="7RbqEsqShzmWH4fHyRnP-39" style="edgeStyle=orthogonalEdgeStyle;rounded=0;orthogonalLoop=1;jettySize=auto;html=1;exitX=1;exitY=0.5;exitDx=0;exitDy=0;entryX=0;entryY=0.5;entryDx=0;entryDy=0;sketch=1;curveFitting=1;jiggle=2;fontFamily=Comic Sans MS;fontSize=16;" edge="1" parent="WIyWlLk6GJQsqaUBKTNV-1" source="7RbqEsqShzmWH4fHyRnP-18" target="7RbqEsqShzmWH4fHyRnP-41">
          <mxGeometry relative="1" as="geometry">
            <mxPoint x="820" y="600" as="targetPoint" />
          </mxGeometry>
        </mxCell>
        <mxCell id="7RbqEsqShzmWH4fHyRnP-18" value="attachRenderObject" style="rounded=1;whiteSpace=wrap;html=1;fontFamily=Comic Sans MS;fontSize=16;sketch=1;curveFitting=1;jiggle=2;" vertex="1" parent="WIyWlLk6GJQsqaUBKTNV-1">
          <mxGeometry x="560" y="580" width="180" height="40" as="geometry" />
        </mxCell>
        <mxCell id="7RbqEsqShzmWH4fHyRnP-25" value="1" style="text;html=1;strokeColor=none;fillColor=none;align=center;verticalAlign=middle;whiteSpace=wrap;rounded=0;fontFamily=Comic Sans MS;fontSize=16;sketch=1;curveFitting=1;jiggle=2;" vertex="1" parent="WIyWlLk6GJQsqaUBKTNV-1">
          <mxGeometry x="800" y="340" width="60" height="30" as="geometry" />
        </mxCell>
        <mxCell id="7RbqEsqShzmWH4fHyRnP-26" value="2" style="text;html=1;strokeColor=none;fillColor=none;align=center;verticalAlign=middle;whiteSpace=wrap;rounded=0;fontFamily=Comic Sans MS;fontSize=16;sketch=1;curveFitting=1;jiggle=2;" vertex="1" parent="WIyWlLk6GJQsqaUBKTNV-1">
          <mxGeometry x="800" y="290" width="60" height="30" as="geometry" />
        </mxCell>
        <mxCell id="7RbqEsqShzmWH4fHyRnP-27" value="1" style="text;html=1;strokeColor=none;fillColor=none;align=center;verticalAlign=middle;whiteSpace=wrap;rounded=0;fontFamily=Comic Sans MS;fontSize=16;sketch=1;curveFitting=1;jiggle=2;" vertex="1" parent="WIyWlLk6GJQsqaUBKTNV-1">
          <mxGeometry x="520" y="500" width="60" height="30" as="geometry" />
        </mxCell>
        <mxCell id="7RbqEsqShzmWH4fHyRnP-28" value="2" style="text;html=1;strokeColor=none;fillColor=none;align=center;verticalAlign=middle;whiteSpace=wrap;rounded=0;fontFamily=Comic Sans MS;fontSize=16;sketch=1;curveFitting=1;jiggle=2;" vertex="1" parent="WIyWlLk6GJQsqaUBKTNV-1">
          <mxGeometry x="520" y="560" width="60" height="30" as="geometry" />
        </mxCell>
        <mxCell id="7RbqEsqShzmWH4fHyRnP-31" value="Component Element" style="text;html=1;strokeColor=none;fillColor=none;align=center;verticalAlign=middle;whiteSpace=wrap;rounded=0;fontFamily=Comic Sans MS;fontSize=16;sketch=1;curveFitting=1;jiggle=2;" vertex="1" parent="WIyWlLk6GJQsqaUBKTNV-1">
          <mxGeometry x="320" y="350" width="126" height="30" as="geometry" />
        </mxCell>
        <mxCell id="7RbqEsqShzmWH4fHyRnP-32" value="RenderObjctElement" style="text;html=1;strokeColor=none;fillColor=none;align=center;verticalAlign=middle;whiteSpace=wrap;rounded=0;fontFamily=Comic Sans MS;fontSize=16;sketch=1;curveFitting=1;jiggle=2;" vertex="1" parent="WIyWlLk6GJQsqaUBKTNV-1">
          <mxGeometry x="354" y="490" width="60" height="30" as="geometry" />
        </mxCell>
        <mxCell id="7RbqEsqShzmWH4fHyRnP-33" value="SingleChild" style="text;html=1;strokeColor=none;fillColor=none;align=center;verticalAlign=middle;whiteSpace=wrap;rounded=0;fontFamily=Comic Sans MS;fontSize=16;sketch=1;curveFitting=1;jiggle=2;" vertex="1" parent="WIyWlLk6GJQsqaUBKTNV-1">
          <mxGeometry x="680" y="640" width="60" height="30" as="geometry" />
        </mxCell>
        <mxCell id="7RbqEsqShzmWH4fHyRnP-38" style="edgeStyle=orthogonalEdgeStyle;rounded=0;orthogonalLoop=1;jettySize=auto;html=1;exitX=0;exitY=0.5;exitDx=0;exitDy=0;entryX=0;entryY=0.5;entryDx=0;entryDy=0;sketch=1;curveFitting=1;jiggle=2;fontFamily=Comic Sans MS;fontSize=16;" edge="1" parent="WIyWlLk6GJQsqaUBKTNV-1" source="7RbqEsqShzmWH4fHyRnP-36" target="7RbqEsqShzmWH4fHyRnP-0">
          <mxGeometry relative="1" as="geometry" />
        </mxCell>
        <mxCell id="7RbqEsqShzmWH4fHyRnP-36" value="updateChild" style="rounded=1;whiteSpace=wrap;html=1;fontFamily=Comic Sans MS;fontSize=16;sketch=1;curveFitting=1;jiggle=2;" vertex="1" parent="WIyWlLk6GJQsqaUBKTNV-1">
          <mxGeometry x="560" y="680" width="180" height="40" as="geometry" />
        </mxCell>
        <mxCell id="7RbqEsqShzmWH4fHyRnP-41" value="inflateWidget(child)" style="rounded=1;whiteSpace=wrap;html=1;fontFamily=Comic Sans MS;fontSize=16;sketch=1;curveFitting=1;jiggle=2;" vertex="1" parent="WIyWlLk6GJQsqaUBKTNV-1">
          <mxGeometry x="850" y="580" width="193" height="40" as="geometry" />
        </mxCell>
        <mxCell id="7RbqEsqShzmWH4fHyRnP-42" value="MultiChild" style="text;html=1;strokeColor=none;fillColor=none;align=center;verticalAlign=middle;whiteSpace=wrap;rounded=0;fontFamily=Comic Sans MS;fontSize=16;sketch=1;curveFitting=1;jiggle=2;" vertex="1" parent="WIyWlLk6GJQsqaUBKTNV-1">
          <mxGeometry x="760" y="560" width="60" height="30" as="geometry" />
        </mxCell>
        <mxCell id="7RbqEsqShzmWH4fHyRnP-43" style="edgeStyle=orthogonalEdgeStyle;rounded=0;orthogonalLoop=1;jettySize=auto;html=1;exitX=1;exitY=0.5;exitDx=0;exitDy=0;entryX=0.451;entryY=0.025;entryDx=0;entryDy=0;entryPerimeter=0;sketch=1;curveFitting=1;jiggle=2;fontFamily=Comic Sans MS;fontSize=16;" edge="1" parent="WIyWlLk6GJQsqaUBKTNV-1" source="7RbqEsqShzmWH4fHyRnP-41" target="7RbqEsqShzmWH4fHyRnP-41">
          <mxGeometry relative="1" as="geometry">
            <Array as="points">
              <mxPoint x="1063" y="600" />
              <mxPoint x="1063" y="540" />
              <mxPoint x="937" y="540" />
            </Array>
          </mxGeometry>
        </mxCell>
        <mxCell id="7RbqEsqShzmWH4fHyRnP-45" value="traverse of child" style="text;html=1;strokeColor=none;fillColor=none;align=center;verticalAlign=middle;whiteSpace=wrap;rounded=0;fontFamily=Comic Sans MS;fontSize=16;sketch=1;curveFitting=1;jiggle=2;" vertex="1" parent="WIyWlLk6GJQsqaUBKTNV-1">
          <mxGeometry x="930" y="500" width="140" height="30" as="geometry" />
        </mxCell>
        <mxCell id="7RbqEsqShzmWH4fHyRnP-79" style="edgeStyle=orthogonalEdgeStyle;rounded=0;orthogonalLoop=1;jettySize=auto;html=1;exitX=1;exitY=0.5;exitDx=0;exitDy=0;entryX=0;entryY=0.5;entryDx=0;entryDy=0;fontFamily=Comic Sans MS;fontSize=16;sketch=1;curveFitting=1;jiggle=2;" edge="1" parent="WIyWlLk6GJQsqaUBKTNV-1" source="7RbqEsqShzmWH4fHyRnP-70" target="7RbqEsqShzmWH4fHyRnP-71">
          <mxGeometry relative="1" as="geometry" />
        </mxCell>
        <mxCell id="7RbqEsqShzmWH4fHyRnP-70" value="rebuild" style="rounded=1;whiteSpace=wrap;html=1;fontFamily=Comic Sans MS;fontSize=16;sketch=1;curveFitting=1;jiggle=2;" vertex="1" parent="WIyWlLk6GJQsqaUBKTNV-1">
          <mxGeometry x="110" y="950" width="130" height="40" as="geometry" />
        </mxCell>
        <mxCell id="7RbqEsqShzmWH4fHyRnP-80" style="edgeStyle=orthogonalEdgeStyle;rounded=0;orthogonalLoop=1;jettySize=auto;html=1;exitX=1;exitY=0.5;exitDx=0;exitDy=0;entryX=0;entryY=0.5;entryDx=0;entryDy=0;fontFamily=Comic Sans MS;fontSize=16;sketch=1;curveFitting=1;jiggle=2;" edge="1" parent="WIyWlLk6GJQsqaUBKTNV-1" source="7RbqEsqShzmWH4fHyRnP-71" target="7RbqEsqShzmWH4fHyRnP-73">
          <mxGeometry relative="1" as="geometry" />
        </mxCell>
        <mxCell id="7RbqEsqShzmWH4fHyRnP-86" style="edgeStyle=orthogonalEdgeStyle;rounded=0;orthogonalLoop=1;jettySize=auto;html=1;exitX=1;exitY=0.5;exitDx=0;exitDy=0;entryX=0;entryY=0.5;entryDx=0;entryDy=0;fontFamily=Comic Sans MS;fontSize=16;sketch=1;curveFitting=1;jiggle=2;" edge="1" parent="WIyWlLk6GJQsqaUBKTNV-1" source="7RbqEsqShzmWH4fHyRnP-71" target="7RbqEsqShzmWH4fHyRnP-72">
          <mxGeometry relative="1" as="geometry" />
        </mxCell>
        <mxCell id="7RbqEsqShzmWH4fHyRnP-71" value="performRebuild" style="rounded=1;whiteSpace=wrap;html=1;fontFamily=Comic Sans MS;fontSize=16;sketch=1;curveFitting=1;jiggle=2;" vertex="1" parent="WIyWlLk6GJQsqaUBKTNV-1">
          <mxGeometry x="290" y="950" width="130" height="40" as="geometry" />
        </mxCell>
        <mxCell id="7RbqEsqShzmWH4fHyRnP-98" style="edgeStyle=orthogonalEdgeStyle;rounded=0;orthogonalLoop=1;jettySize=auto;html=1;exitX=1;exitY=0.5;exitDx=0;exitDy=0;entryX=0.5;entryY=1;entryDx=0;entryDy=0;shadow=0;sketch=1;curveFitting=1;jiggle=2;fontFamily=Comic Sans MS;fontSize=16;" edge="1" parent="WIyWlLk6GJQsqaUBKTNV-1" source="7RbqEsqShzmWH4fHyRnP-72" target="7RbqEsqShzmWH4fHyRnP-75">
          <mxGeometry relative="1" as="geometry" />
        </mxCell>
        <mxCell id="7RbqEsqShzmWH4fHyRnP-72" value="updateRenderObject" style="rounded=1;whiteSpace=wrap;html=1;fontFamily=Comic Sans MS;fontSize=16;sketch=1;curveFitting=1;jiggle=2;" vertex="1" parent="WIyWlLk6GJQsqaUBKTNV-1">
          <mxGeometry x="480" y="1129" width="190" height="40" as="geometry" />
        </mxCell>
        <mxCell id="7RbqEsqShzmWH4fHyRnP-81" style="edgeStyle=orthogonalEdgeStyle;rounded=0;orthogonalLoop=1;jettySize=auto;html=1;exitX=1;exitY=0.5;exitDx=0;exitDy=0;entryX=0;entryY=0.5;entryDx=0;entryDy=0;fontFamily=Comic Sans MS;fontSize=16;sketch=1;curveFitting=1;jiggle=2;" edge="1" parent="WIyWlLk6GJQsqaUBKTNV-1" source="7RbqEsqShzmWH4fHyRnP-73" target="7RbqEsqShzmWH4fHyRnP-74">
          <mxGeometry relative="1" as="geometry" />
        </mxCell>
        <mxCell id="7RbqEsqShzmWH4fHyRnP-82" style="edgeStyle=orthogonalEdgeStyle;rounded=0;orthogonalLoop=1;jettySize=auto;html=1;exitX=1;exitY=0.5;exitDx=0;exitDy=0;entryX=0;entryY=0.5;entryDx=0;entryDy=0;fontFamily=Comic Sans MS;fontSize=16;sketch=1;curveFitting=1;jiggle=2;" edge="1" parent="WIyWlLk6GJQsqaUBKTNV-1" source="7RbqEsqShzmWH4fHyRnP-73" target="7RbqEsqShzmWH4fHyRnP-75">
          <mxGeometry relative="1" as="geometry" />
        </mxCell>
        <mxCell id="7RbqEsqShzmWH4fHyRnP-73" value="" style="rounded=1;whiteSpace=wrap;html=1;fontFamily=Comic Sans MS;fontSize=16;sketch=1;curveFitting=1;jiggle=2;" vertex="1" parent="WIyWlLk6GJQsqaUBKTNV-1">
          <mxGeometry x="480" y="870" width="80" height="40" as="geometry" />
        </mxCell>
        <mxCell id="7RbqEsqShzmWH4fHyRnP-74" value="build" style="rounded=1;whiteSpace=wrap;html=1;fontFamily=Comic Sans MS;fontSize=16;sketch=1;curveFitting=1;jiggle=2;" vertex="1" parent="WIyWlLk6GJQsqaUBKTNV-1">
          <mxGeometry x="630" y="810" width="80" height="40" as="geometry" />
        </mxCell>
        <mxCell id="7RbqEsqShzmWH4fHyRnP-83" style="edgeStyle=orthogonalEdgeStyle;rounded=0;orthogonalLoop=1;jettySize=auto;html=1;exitX=1;exitY=0.5;exitDx=0;exitDy=0;fontFamily=Comic Sans MS;fontSize=16;sketch=1;curveFitting=1;jiggle=2;" edge="1" parent="WIyWlLk6GJQsqaUBKTNV-1" source="7RbqEsqShzmWH4fHyRnP-75" target="7RbqEsqShzmWH4fHyRnP-76">
          <mxGeometry relative="1" as="geometry" />
        </mxCell>
        <mxCell id="7RbqEsqShzmWH4fHyRnP-75" value="updateChild" style="rounded=1;whiteSpace=wrap;html=1;fontFamily=Comic Sans MS;fontSize=16;sketch=1;curveFitting=1;jiggle=2;" vertex="1" parent="WIyWlLk6GJQsqaUBKTNV-1">
          <mxGeometry x="630" y="920" width="130" height="40" as="geometry" />
        </mxCell>
        <mxCell id="7RbqEsqShzmWH4fHyRnP-84" value="" style="edgeStyle=orthogonalEdgeStyle;rounded=0;orthogonalLoop=1;jettySize=auto;html=1;fontFamily=Comic Sans MS;fontSize=16;sketch=1;curveFitting=1;jiggle=2;" edge="1" parent="WIyWlLk6GJQsqaUBKTNV-1" source="7RbqEsqShzmWH4fHyRnP-76" target="7RbqEsqShzmWH4fHyRnP-78">
          <mxGeometry relative="1" as="geometry" />
        </mxCell>
        <mxCell id="7RbqEsqShzmWH4fHyRnP-91" style="edgeStyle=orthogonalEdgeStyle;rounded=0;orthogonalLoop=1;jettySize=auto;html=1;exitX=1;exitY=0.5;exitDx=0;exitDy=0;entryX=0.5;entryY=0;entryDx=0;entryDy=0;fontFamily=Comic Sans MS;fontSize=16;sketch=1;curveFitting=1;jiggle=2;" edge="1" parent="WIyWlLk6GJQsqaUBKTNV-1" source="7RbqEsqShzmWH4fHyRnP-76" target="7RbqEsqShzmWH4fHyRnP-70">
          <mxGeometry relative="1" as="geometry">
            <Array as="points">
              <mxPoint x="1010" y="940" />
              <mxPoint x="1010" y="790" />
              <mxPoint x="175" y="790" />
            </Array>
          </mxGeometry>
        </mxCell>
        <mxCell id="7RbqEsqShzmWH4fHyRnP-76" value="child.update" style="rounded=1;whiteSpace=wrap;html=1;fontFamily=Comic Sans MS;fontSize=16;sketch=1;curveFitting=1;jiggle=2;" vertex="1" parent="WIyWlLk6GJQsqaUBKTNV-1">
          <mxGeometry x="860" y="920" width="130" height="40" as="geometry" />
        </mxCell>
        <mxCell id="7RbqEsqShzmWH4fHyRnP-85" style="edgeStyle=orthogonalEdgeStyle;rounded=0;orthogonalLoop=1;jettySize=auto;html=1;exitX=0;exitY=0.5;exitDx=0;exitDy=0;entryX=0.5;entryY=1;entryDx=0;entryDy=0;fontFamily=Comic Sans MS;fontSize=16;sketch=1;curveFitting=1;jiggle=2;" edge="1" parent="WIyWlLk6GJQsqaUBKTNV-1" source="7RbqEsqShzmWH4fHyRnP-78" target="7RbqEsqShzmWH4fHyRnP-75">
          <mxGeometry relative="1" as="geometry" />
        </mxCell>
        <mxCell id="7RbqEsqShzmWH4fHyRnP-78" value="updatreRenderObject" style="rounded=1;whiteSpace=wrap;html=1;fontFamily=Comic Sans MS;fontSize=16;sketch=1;curveFitting=1;jiggle=2;" vertex="1" parent="WIyWlLk6GJQsqaUBKTNV-1">
          <mxGeometry x="810" y="1020" width="230" height="40" as="geometry" />
        </mxCell>
        <mxCell id="7RbqEsqShzmWH4fHyRnP-88" style="edgeStyle=orthogonalEdgeStyle;rounded=0;orthogonalLoop=1;jettySize=auto;html=1;exitX=0.75;exitY=1;exitDx=0;exitDy=0;entryX=1;entryY=0.75;entryDx=0;entryDy=0;fontFamily=Comic Sans MS;fontSize=16;sketch=1;curveFitting=1;jiggle=2;" edge="1" parent="WIyWlLk6GJQsqaUBKTNV-1" source="7RbqEsqShzmWH4fHyRnP-74" target="7RbqEsqShzmWH4fHyRnP-74">
          <mxGeometry relative="1" as="geometry" />
        </mxCell>
        <mxCell id="7RbqEsqShzmWH4fHyRnP-89" value="1" style="text;html=1;strokeColor=none;fillColor=none;align=center;verticalAlign=middle;whiteSpace=wrap;rounded=0;fontFamily=Comic Sans MS;fontSize=16;sketch=1;curveFitting=1;jiggle=2;" vertex="1" parent="WIyWlLk6GJQsqaUBKTNV-1">
          <mxGeometry x="590" y="850" width="60" height="30" as="geometry" />
        </mxCell>
        <mxCell id="7RbqEsqShzmWH4fHyRnP-90" value="2" style="text;html=1;strokeColor=none;fillColor=none;align=center;verticalAlign=middle;whiteSpace=wrap;rounded=0;fontFamily=Comic Sans MS;fontSize=16;sketch=1;curveFitting=1;jiggle=2;" vertex="1" parent="WIyWlLk6GJQsqaUBKTNV-1">
          <mxGeometry x="590" y="900" width="60" height="30" as="geometry" />
        </mxCell>
        <mxCell id="7RbqEsqShzmWH4fHyRnP-92" value="Component Element" style="text;html=1;strokeColor=none;fillColor=none;align=center;verticalAlign=middle;whiteSpace=wrap;rounded=0;fontFamily=Comic Sans MS;fontSize=16;sketch=1;curveFitting=1;jiggle=2;" vertex="1" parent="WIyWlLk6GJQsqaUBKTNV-1">
          <mxGeometry x="340" y="890" width="126" height="30" as="geometry" />
        </mxCell>
        <mxCell id="7RbqEsqShzmWH4fHyRnP-93" value="RenderObjctElement" style="text;html=1;strokeColor=none;fillColor=none;align=center;verticalAlign=middle;whiteSpace=wrap;rounded=0;fontFamily=Comic Sans MS;fontSize=16;sketch=1;curveFitting=1;jiggle=2;" vertex="1" parent="WIyWlLk6GJQsqaUBKTNV-1">
          <mxGeometry x="300" y="1050" width="60" height="30" as="geometry" />
        </mxCell>
        <mxCell id="7RbqEsqShzmWH4fHyRnP-94" value="RenderObjctElement" style="text;html=1;strokeColor=none;fillColor=none;align=center;verticalAlign=middle;whiteSpace=wrap;rounded=0;fontFamily=Comic Sans MS;fontSize=16;sketch=1;curveFitting=1;jiggle=2;" vertex="1" parent="WIyWlLk6GJQsqaUBKTNV-1">
          <mxGeometry x="1000" y="980" width="60" height="30" as="geometry" />
        </mxCell>
        <mxCell id="7RbqEsqShzmWH4fHyRnP-95" value="Component Element" style="text;html=1;strokeColor=none;fillColor=none;align=center;verticalAlign=middle;whiteSpace=wrap;rounded=0;fontFamily=Comic Sans MS;fontSize=16;sketch=1;curveFitting=1;jiggle=2;" vertex="1" parent="WIyWlLk6GJQsqaUBKTNV-1">
          <mxGeometry x="1010" y="870" width="126" height="30" as="geometry" />
        </mxCell>
        <mxCell id="7RbqEsqShzmWH4fHyRnP-100" value="某些RenderObjctElement继承类" style="text;html=1;strokeColor=none;fillColor=none;align=center;verticalAlign=middle;whiteSpace=wrap;rounded=0;fontFamily=Comic Sans MS;fontSize=16;sketch=1;curveFitting=1;jiggle=2;" vertex="1" parent="WIyWlLk6GJQsqaUBKTNV-1">
          <mxGeometry x="665" y="1099" width="330" height="30" as="geometry" />
        </mxCell>
        <mxCell id="7RbqEsqShzmWH4fHyRnP-101" value="canUpdate&amp;nbsp;" style="text;html=1;strokeColor=none;fillColor=none;align=center;verticalAlign=middle;whiteSpace=wrap;rounded=0;fontFamily=Comic Sans MS;fontSize=16;" vertex="1" parent="WIyWlLk6GJQsqaUBKTNV-1">
          <mxGeometry x="780" y="910" width="60" height="30" as="geometry" />
        </mxCell>
      </root>
    </mxGraphModel>
  </diagram>
</mxfile>
